# xmcd
#
# Track frame offsets: 
#        150
#        12101
#        24009
#        36249
#        50035
#        59311
#        73107
#        84694
#        96141
#        104974
#        118022
#        129990
#        138725
#        151238
#        168643
#        188543
#        203722
#
# Disc length: 2862 seconds
#
# Revision: 0
# Processed by: cddbd v1.5.2PL0 Copyright (c) Steve Scherf et al.
# Submitted via: ExactAudioCopy v0.95b3
#
DISCID=ec0b2c11
DTITLE=The Lovin' Spoonful  - Singles As and Bs - CD2
DYEAR=1900
DGENRE=
TTITLE0=My Gal
TTITLE1=Butchie's Tune
TTITLE2=Full Measure
TTITLE3=Night Owl Blues
TTITLE4=Warm Baby
TTITLE5=Only Pretty, What A Pity
TTITLE6=You're A Big Boy Now
TTITLE7=The Finale
TTITLE8=Run With You
TTITLE9=Amazing Air
TTITLE10=Didn't Want to Have to Do It
TTITLE11=Money
TTITLE12=Close Your Eyes
TTITLE13=Me About You
TTITLE14=Lonely (Amy's Theme)
TTITLE15=Forever
TTITLE16=Pow (Theme From 'What's Up Tiger Lily')
EXTD=
EXTT0=
EXTT1=
EXTT2=
EXTT3=
EXTT4=
EXTT5=
EXTT6=
EXTT7=
EXTT8=
EXTT9=
EXTT10=
EXTT11=
EXTT12=
EXTT13=
EXTT14=
EXTT15=
EXTT16=
PLAYORDER=
